<svg xmlns="http://www.w3.org/2000/svg" viewBox="0 0 1407 483" width="1407" height="483" role="img" aria-label="Savage Grappling"><path fill="#0b0c10" fill-rule="evenodd" d="M85.0 255.4C65.0 251.8 54.5 249.4 50.0 247.5C39.8 243.2 28.9 236.2 22.2 229.8C15.8 223.6 4.0 207.7 2.6 203.2C2.2 202.0 1.4 201.0 0.9 201.0C0.4 201.0 0.0 200.2 0.0 199.2C0.0 198.1 2.1 196.4 5.8 194.5C8.9 192.9 13.3 190.4 15.5 188.9C17.7 187.5 21.3 185.6 23.5 184.7C25.7 183.7 29.2 182.1 31.2 181.0C37.2 177.8 38.7 178.3 41.6 184.5C45.2 192.1 57.4 203.2 67.3 207.9C77.0 212.4 98.1 216.2 110.1 215.6C120.6 215.0 139.0 210.7 144.4 207.5C150.0 204.2 157.6 195.4 159.5 189.9C161.5 184.3 161.4 173.8 159.4 169.7C154.7 160.6 151.4 157.5 141.8 153.2C136.7 151.0 128.9 148.2 124.5 147.1C116.7 145.2 112.2 144.5 88.0 141.5C73.9 139.8 61.0 135.9 46.5 129.0C22.6 117.6 11.7 99.9 11.6 72.5C11.5 60.3 14.2 47.6 18.3 40.5C22.7 33.0 33.3 21.7 38.7 18.7C59.7 7.1 66.1 4.9 84.5 3.0C90.6 2.4 96.5 1.4 97.6 0.9C98.8 0.3 102.4 0.0 105.6 0.3C139.8 3.4 154.5 7.0 166.7 15.2C169.0 16.7 171.4 18.0 172.0 18.0C174.2 18.0 190.5 34.4 192.9 38.9C194.2 41.4 195.9 44.3 196.7 45.2C197.5 46.1 197.9 47.4 197.5 48.0C196.2 50.0 186.7 55.6 179.0 58.9C174.9 60.7 169.7 63.3 167.6 64.7L163.6 67.3L160.8 64.1C153.6 56.0 136.8 45.0 131.7 45.0C130.5 45.0 127.7 44.3 125.5 43.6C114.2 39.6 93.1 39.6 83.4 43.5C81.7 44.2 78.3 45.1 75.9 45.5C69.7 46.6 58.0 58.2 56.0 65.3C53.2 75.5 56.3 83.8 65.1 90.0C73.7 96.1 81.2 98.6 95.7 100.5C126.5 104.5 137.9 106.8 156.6 112.8C167.7 116.5 172.0 118.6 181.3 125.3C189.5 131.2 189.5 131.1 195.6 140.5C204.2 153.3 205.3 157.9 205.4 178.0C205.5 198.5 204.5 202.8 197.1 215.5C189.1 228.9 173.8 241.4 157.1 248.0C145.8 252.4 126.5 255.3 106.5 255.6C96.0 255.7 86.4 255.6 85.0 255.4ZM1077.0 255.0C1065.0 253.6 1045.3 250.1 1040.2 248.4C1029.5 244.8 1005.0 231.2 1005.0 228.9C1005.0 228.4 1003.0 226.7 1000.6 225.1C996.5 222.2 983.4 206.2 979.7 199.5C977.0 194.4 970.4 177.9 968.2 170.5C962.6 151.7 962.5 114.7 967.9 95.0C978.4 57.6 1000.2 30.0 1031.0 15.3C1051.1 5.7 1057.5 4.2 1082.1 3.3C1111.4 2.2 1129.3 5.6 1146.9 15.5C1149.3 16.9 1151.7 18.0 1152.3 18.0C1154.9 18.0 1180.0 37.0 1180.0 39.0C1180.0 40.2 1153.3 67.0 1152.1 67.0C1151.6 67.0 1149.2 65.3 1146.7 63.3C1141.7 59.2 1124.2 49.9 1117.0 47.6C1109.0 45.0 1092.0 43.8 1079.2 45.0C1066.8 46.1 1058.1 48.9 1050.2 54.2C1047.8 55.7 1044.2 57.9 1042.1 58.9C1037.9 61.1 1026.9 72.9 1022.2 80.3C1018.6 86.1 1011.8 103.2 1009.9 111.5C1009.0 115.2 1008.5 123.3 1008.5 132.5C1008.5 149.0 1009.9 156.3 1015.2 167.8C1016.8 171.3 1018.5 175.2 1019.0 176.5C1020.4 180.1 1033.7 195.5 1036.8 197.1C1038.3 197.9 1042.0 200.1 1045.0 202.0C1056.1 209.2 1065.3 211.5 1086.5 212.7C1096.5 213.2 1114.6 211.2 1120.7 208.9C1124.7 207.4 1142.3 196.8 1143.7 195.0C1145.3 193.0 1145.5 153.4 1143.9 152.5C1143.4 152.1 1130.5 151.9 1115.4 151.9C1098.1 152.0 1087.1 151.6 1085.9 150.9C1084.1 150.0 1084.0 148.8 1084.2 130.7L1084.5 111.5L1135.5 111.5L1186.5 111.5L1186.8 161.4L1187.0 211.2L1183.4 216.1C1181.5 218.8 1178.4 222.0 1176.7 223.2C1174.9 224.4 1171.0 227.7 1167.9 230.4C1161.6 236.2 1139.5 248.0 1131.5 250.0C1112.2 254.6 1090.9 256.6 1077.0 255.0ZM547.3 249.8C545.7 247.7 538.3 230.9 536.1 224.4C535.0 221.0 532.1 214.0 529.7 208.9C527.3 203.7 524.5 197.0 523.5 194.0C521.7 188.4 519.2 182.6 513.9 171.4C512.3 168.0 510.7 163.7 510.3 161.9C510.0 160.0 508.9 156.9 507.9 155.0C504.6 148.4 497.3 131.5 496.0 127.5C494.8 123.4 487.2 105.7 484.5 100.7C483.7 99.1 483.0 97.0 483.0 96.1C483.0 94.5 476.2 78.7 472.6 72.0C471.9 70.6 470.2 66.3 469.0 62.5C467.8 58.6 464.5 50.5 461.7 44.5C459.0 38.5 455.9 30.8 454.8 27.5C453.7 24.2 451.7 19.4 450.4 16.8C446.2 8.5 444.8 8.9 472.7 9.2L497.5 9.5L499.4 13.5C503.8 22.7 508.3 33.8 509.5 38.5C510.2 41.2 513.3 49.3 516.3 56.5C519.3 63.7 522.6 72.0 523.5 75.0C524.4 78.0 526.4 83.4 528.0 87.0C533.5 99.7 535.8 105.5 536.4 108.5C536.8 110.2 540.0 118.2 543.5 126.5C547.0 134.8 550.2 142.8 550.5 144.5C551.2 147.4 555.5 158.4 560.5 170.0C561.8 173.0 563.2 176.6 563.6 178.0C565.3 184.9 569.5 194.0 570.8 193.8C572.2 193.5 576.5 184.1 578.3 177.5C578.8 175.3 581.8 167.7 584.7 160.5C587.7 153.3 591.0 144.8 592.1 141.5C593.1 138.2 596.6 129.2 600.0 121.6C603.3 113.9 606.0 107.1 606.0 106.4C606.0 104.9 611.0 92.0 614.4 84.5C615.7 81.8 617.8 76.3 619.0 72.5C621.2 65.5 623.2 60.4 628.8 47.9C630.5 44.2 632.6 38.6 633.5 35.4C635.6 27.9 641.9 13.0 643.8 10.8C645.2 9.2 647.7 9.0 669.1 9.0C683.3 9.0 693.1 9.4 693.5 10.0C693.8 10.5 693.2 12.6 692.1 14.7C691.1 16.8 689.5 20.8 688.7 23.5C687.2 28.3 684.9 33.9 679.0 46.5C677.4 49.8 675.2 55.5 674.0 59.0C672.0 65.0 670.0 69.7 663.6 83.5C662.3 86.2 660.9 90.1 660.5 92.0C660.1 93.9 659.2 96.6 658.4 98.0C655.3 103.7 648.7 118.9 646.9 124.5C645.1 130.0 643.3 134.3 640.8 139.4C638.5 144.0 633.0 157.6 633.0 158.7C633.0 159.4 631.4 163.3 629.5 167.5C620.6 186.7 619.3 189.7 618.7 192.6C618.4 194.3 615.5 201.5 612.2 208.6C609.0 215.7 606.0 222.8 605.6 224.4C604.6 228.5 596.1 247.1 594.2 249.2C592.8 250.8 590.4 251.0 570.5 251.0C553.9 251.0 548.0 250.7 547.3 249.8ZM218.6 249.1C217.8 247.9 222.1 236.8 227.1 226.7C229.4 222.2 232.4 215.6 233.7 212.2C235.0 208.7 239.0 199.9 242.5 192.6C246.1 185.4 249.0 178.9 249.0 178.2C249.0 177.4 251.6 171.6 254.8 165.2C258.0 158.8 261.0 152.1 261.4 150.5C261.8 148.8 265.3 141.1 269.1 133.3C272.9 125.4 276.0 118.6 276.0 118.0C276.0 117.4 279.1 110.3 282.9 102.2C286.7 94.1 290.1 86.4 290.5 85.0C290.9 83.6 293.9 77.3 297.0 70.9C300.2 64.6 303.3 57.6 304.0 55.4C304.7 53.3 307.9 46.3 311.0 39.9C314.2 33.6 317.1 27.0 317.4 25.3C317.8 23.6 319.7 19.3 321.6 15.6L325.1 9.0L349.5 9.0L373.9 9.0L378.8 18.7C381.5 24.1 384.3 30.3 385.0 32.5C385.7 34.7 389.2 42.3 392.6 49.3C396.1 56.4 399.0 62.8 399.0 63.6C399.0 64.4 401.9 71.0 405.4 78.3C408.9 85.5 412.1 92.6 412.5 94.0C412.9 95.4 415.9 102.0 419.1 108.8C422.4 115.6 426.1 123.9 427.4 127.3C428.7 130.7 431.8 137.6 434.2 142.5C436.7 147.4 439.5 153.5 440.3 156.0C441.1 158.5 444.6 165.9 447.9 172.6C451.2 179.3 454.2 186.0 454.6 187.6C455.0 189.2 458.2 196.3 461.7 203.4C465.1 210.5 468.0 217.0 468.0 217.7C468.0 218.4 471.2 225.4 475.1 233.1C478.9 240.9 481.9 247.9 481.6 248.6C481.1 249.8 476.9 250.0 456.9 249.8L432.7 249.5L431.0 246.5C430.1 244.8 428.8 241.7 428.1 239.5C427.4 237.3 423.5 228.6 419.4 220.2L412.0 205.0L350.1 205.0C292.5 205.0 288.2 205.1 286.7 206.8C284.7 209.0 276.3 226.0 275.4 229.7C275.0 231.2 272.7 236.4 270.3 241.2L265.8 250.0L242.5 250.0C229.6 250.0 218.9 249.6 218.6 249.1ZM699.4 248.5C699.1 247.7 699.5 246.1 700.4 244.8C701.3 243.6 702.0 241.9 702.0 241.2C702.0 240.5 704.5 234.6 707.6 228.2C710.6 221.8 714.2 213.8 715.5 210.5C716.7 207.2 720.5 198.8 723.9 191.9C727.3 185.0 730.0 178.8 730.0 178.1C730.0 177.5 732.9 171.0 736.5 163.7C740.1 156.4 743.0 149.7 743.0 148.9C743.0 148.1 745.9 141.6 749.5 134.5C753.1 127.3 756.5 119.9 757.1 118.0C757.7 116.1 760.8 109.1 764.0 102.5C767.1 95.9 770.3 88.7 771.0 86.5C771.7 84.3 775.4 76.3 779.2 68.6C782.9 61.0 786.0 54.2 786.0 53.4C786.0 52.7 788.5 47.0 791.6 40.8C794.7 34.6 797.8 27.5 798.6 25.0C799.4 22.5 801.3 18.0 802.8 15.0L805.5 9.5L830.2 9.2L854.9 9.0L860.8 20.7C864.0 27.2 867.0 33.8 867.4 35.4C867.8 37.0 870.6 43.3 873.6 49.4C876.7 55.5 879.8 62.5 880.6 65.0C881.3 67.5 884.7 74.9 888.0 81.5C891.3 88.1 894.0 94.1 894.0 94.8C894.0 95.6 897.1 102.6 900.9 110.3C904.7 118.1 908.1 125.6 908.5 127.0C908.9 128.4 911.6 134.5 914.6 140.7C917.5 146.8 920.7 154.0 921.6 156.6C922.5 159.2 926.1 167.1 929.6 174.1C933.1 181.1 936.0 187.6 936.0 188.4C936.0 189.2 938.9 195.8 942.5 203.2C946.1 210.5 949.0 217.0 949.0 217.7C949.0 218.4 952.2 225.4 956.0 233.2C959.9 241.0 962.8 248.0 962.5 248.7C962.2 249.8 957.0 250.0 937.8 249.8L913.5 249.5L911.3 245.0C910.1 242.5 909.1 239.9 909.1 239.1C909.0 238.4 905.4 230.4 901.0 221.4L893.1 205.0L831.2 205.0C773.5 205.0 769.2 205.1 767.7 206.8C765.7 209.0 757.0 226.5 757.0 228.3C757.0 229.1 754.7 234.3 751.9 239.9L746.8 250.0L723.3 250.0C703.8 250.0 699.8 249.8 699.4 248.5ZM1224.7 249.3C1223.3 248.0 1223.9 109.0 1225.2 109.0C1276.6 108.6 1397.6 109.2 1398.2 109.8C1398.7 110.3 1398.9 119.6 1398.8 130.6L1398.5 150.5L1333.9 150.8L1269.2 151.0L1268.6 153.3C1268.3 154.5 1268.1 166.2 1268.1 179.2C1268.1 199.4 1268.3 203.2 1269.6 204.5C1271.0 205.9 1278.6 206.0 1336.8 206.0C1389.7 205.9 1402.5 206.1 1403.1 207.2C1404.1 208.7 1404.3 246.0 1403.4 248.4C1402.8 249.8 1394.0 250.0 1314.1 250.0C1265.3 250.0 1225.0 249.7 1224.7 249.3ZM393.0 160.1C393.0 159.1 391.9 156.3 390.6 153.9C389.2 151.5 386.9 146.1 385.4 142.0C384.0 137.9 381.5 132.0 379.9 129.0C376.4 122.1 372.0 112.0 372.0 110.9C372.0 110.0 365.5 95.7 361.6 88.0C360.3 85.5 358.7 81.7 358.0 79.5C355.9 72.8 350.6 62.0 349.4 62.0C348.2 62.0 346.6 65.2 344.3 72.0C343.5 74.5 340.9 80.5 338.5 85.5C332.9 97.4 331.3 101.0 330.4 104.0C330.1 105.4 326.9 112.4 323.5 119.5C320.1 126.7 317.0 133.9 316.6 135.5C316.2 137.2 313.7 143.1 310.9 148.7C308.2 154.3 306.0 159.6 306.0 160.4C306.0 161.8 310.6 162.0 349.5 162.0C391.4 162.0 393.0 161.9 393.0 160.1ZM874.0 160.5C874.0 159.6 872.9 156.8 871.6 154.2C870.3 151.6 868.7 147.7 868.0 145.5C867.3 143.3 863.6 134.9 859.9 126.9C856.1 118.8 853.0 111.6 853.0 110.8C853.0 110.0 851.0 105.4 848.6 100.4C842.5 88.1 840.0 82.3 840.0 80.8C840.0 78.2 831.5 62.5 830.1 62.5C829.3 62.5 827.6 65.7 825.9 70.4C824.4 74.7 820.9 82.8 818.2 88.4C815.5 94.0 812.7 100.3 812.0 102.5C811.3 104.7 807.9 112.5 804.4 119.8C800.9 127.1 798.0 133.7 798.0 134.5C798.0 135.3 795.5 141.2 792.5 147.5C789.5 153.9 787.0 159.7 787.0 160.5C787.0 161.8 793.0 162.0 830.5 162.0C868.9 162.0 874.0 161.8 874.0 160.5Z"/><path fill="#0123b4" fill-rule="evenodd" d="M80.0 481.9C78.6 481.5 73.2 480.4 68.0 479.5C62.8 478.6 57.1 477.2 55.5 476.5C53.9 475.7 49.1 473.7 44.9 472.0C36.0 468.4 32.8 466.2 23.8 457.3C15.2 448.9 3.1 427.7 3.0 420.9C3.0 419.5 2.3 417.5 1.5 416.4C-0.6 413.6 -0.7 374.5 1.5 370.4C2.3 368.8 3.0 366.8 3.0 365.9C3.0 363.8 8.9 349.0 10.5 347.0C11.1 346.2 12.8 343.0 14.2 340.0C19.9 328.0 40.0 311.3 54.6 306.5C81.2 297.8 98.0 297.8 124.3 306.5C131.5 308.8 150.7 320.8 153.2 324.4C154.9 326.8 153.6 328.7 145.5 336.5C140.8 340.9 137.0 345.1 137.0 345.8C137.0 348.2 133.9 346.9 128.3 342.4C121.6 337.0 118.3 335.4 107.7 332.9C93.3 329.4 74.0 331.0 62.8 336.6C51.4 342.3 40.1 356.7 35.0 371.9C27.3 395.3 33.3 422.1 49.7 437.0C55.6 442.3 58.2 443.8 66.1 446.8C75.2 450.1 76.0 450.2 90.0 450.3C103.6 450.4 104.9 450.2 111.5 447.6C115.3 446.1 119.7 444.4 121.1 443.8C122.6 443.3 125.0 441.6 126.4 440.1L129.1 437.3L128.8 422.4L128.5 407.5L108.0 407.2C96.8 407.1 87.1 406.5 86.6 406.0C85.6 405.0 85.5 379.7 86.5 378.0C87.2 376.9 155.5 376.5 158.4 377.6C161.0 378.6 160.8 448.3 158.2 452.2C153.2 459.8 139.4 469.7 126.4 474.9C111.1 481.0 88.9 484.4 80.0 481.9ZM1326.8 482.5C1326.6 482.3 1323.3 481.6 1319.5 481.0C1308.9 479.4 1300.0 477.0 1295.0 474.5C1292.5 473.3 1289.1 471.9 1287.4 471.6C1282.7 470.6 1268.0 457.9 1261.0 448.9C1254.9 441.0 1252.7 436.4 1247.0 418.4C1241.0 399.8 1244.9 365.9 1255.3 345.4C1264.1 328.0 1284.3 310.6 1301.0 305.7C1328.1 298.0 1340.2 298.0 1367.4 305.9C1373.6 307.8 1388.1 315.7 1389.6 318.1C1389.9 318.6 1392.0 320.2 1394.1 321.6C1400.1 325.3 1400.0 326.4 1393.4 333.2C1390.1 336.6 1385.8 341.0 1383.8 343.1C1379.9 347.2 1377.6 348.0 1376.7 345.6C1375.6 342.9 1361.0 334.8 1354.2 333.1C1340.8 329.9 1316.8 331.4 1308.0 336.0C1298.3 341.1 1285.7 354.8 1281.4 364.8C1277.2 374.4 1275.7 393.1 1278.0 406.5C1280.1 418.7 1283.1 425.1 1291.2 434.1C1301.5 445.5 1314.4 450.4 1335.0 450.4C1348.3 450.4 1348.6 450.4 1358.3 446.6C1364.3 444.3 1369.4 441.6 1371.5 439.5L1375.0 436.3L1375.0 422.8C1375.0 413.7 1374.6 409.0 1373.8 408.2C1372.9 407.3 1366.8 407.0 1352.5 407.0C1338.2 407.0 1332.1 406.7 1331.2 405.8C1329.5 404.1 1329.5 379.9 1331.2 378.2C1332.9 376.5 1401.1 376.5 1402.8 378.2C1403.7 379.1 1404.0 388.8 1404.0 415.6L1404.0 451.7L1400.8 454.7C1385.4 469.0 1381.3 471.6 1363.5 477.9C1356.0 480.5 1328.3 484.0 1326.8 482.5ZM185.2 477.4C184.3 476.9 184.0 458.9 184.0 392.0C184.0 309.1 184.0 307.0 185.9 306.0C188.4 304.7 262.7 304.7 276.3 306.0C290.4 307.4 296.8 309.8 307.0 317.9C309.7 320.1 312.3 322.0 312.8 322.2C314.3 322.7 322.7 336.3 324.9 341.6C334.2 364.3 327.1 392.6 308.5 406.2C302.1 411.0 292.3 415.9 289.2 416.0C285.7 416.0 292.8 428.2 298.0 431.0C299.2 431.6 301.0 433.6 302.0 435.3C303.1 437.1 306.8 441.6 310.2 445.3C313.7 449.1 319.5 455.4 323.1 459.3C326.8 463.3 330.3 467.5 330.9 468.8C333.2 473.2 335.3 471.4 340.2 460.7C342.9 455.0 345.0 449.9 345.0 449.2C345.0 448.5 347.6 442.6 350.8 436.2C354.1 429.8 357.0 423.3 357.4 421.7C357.7 420.2 361.1 412.6 364.9 404.7C368.7 396.9 372.1 389.4 372.5 388.0C372.9 386.6 375.8 380.1 379.0 373.5C382.1 366.9 385.3 359.9 385.9 357.9C386.5 355.9 389.7 349.0 392.9 342.7C396.1 336.3 399.1 329.8 399.4 328.3C400.8 323.0 408.9 307.1 410.9 306.1C413.0 304.9 441.7 304.6 444.5 305.6C446.1 306.2 453.8 321.4 455.5 327.0C455.9 328.4 458.8 334.9 462.1 341.5C465.3 348.2 468.0 354.2 468.0 354.9C468.0 355.6 470.9 362.1 474.4 369.3C477.9 376.6 482.0 385.6 483.6 389.5C485.1 393.4 488.3 400.4 490.7 405.2C493.0 409.9 495.0 414.3 495.0 415.0C495.0 416.1 499.7 426.3 507.1 441.4C508.7 444.6 510.0 447.9 510.0 448.7C510.0 449.5 511.5 453.1 513.4 456.8C519.0 467.9 522.0 474.6 522.0 476.3C522.0 477.8 520.1 478.0 505.0 478.0L488.0 478.0L485.7 474.2C484.4 472.2 482.8 468.7 482.2 466.5C481.5 464.3 479.0 458.7 476.7 454.0L472.4 445.5L428.5 445.2C399.2 445.1 384.3 445.3 383.5 446.0C382.0 447.2 372.0 467.3 372.0 469.0C372.0 469.6 371.1 471.9 370.0 474.0L368.0 478.0L333.5 478.0L299.0 478.0L294.2 473.1C291.6 470.4 286.6 464.7 283.0 460.5C279.4 456.4 273.6 449.7 270.0 445.6C266.4 441.6 259.9 434.2 255.5 429.1L247.5 420.0L233.4 420.0C222.8 420.0 219.0 420.3 218.1 421.3C217.4 422.2 216.9 431.9 216.8 450.1L216.5 477.5L201.5 477.7C193.2 477.8 185.9 477.6 185.2 477.4ZM536.2 476.8C535.3 475.9 535.0 456.5 535.0 391.3C535.0 309.0 535.0 307.0 536.9 306.0C539.6 304.6 616.1 304.7 628.8 306.1C639.8 307.3 646.8 310.2 656.3 317.3C663.5 322.8 672.7 334.2 674.1 339.5C674.7 341.7 675.8 345.1 676.6 347.0C681.0 358.5 680.3 374.3 674.6 390.7C672.2 397.7 662.6 410.8 656.9 414.8C652.3 418.0 643.0 422.3 635.6 424.6C627.9 426.9 626.6 427.0 597.8 427.0C581.4 427.0 567.9 427.1 567.8 427.2C567.7 427.4 567.3 438.8 567.0 452.5L566.5 477.5L552.0 477.8C541.5 478.0 537.1 477.7 536.2 476.8ZM702.7 477.4C702.3 477.0 702.0 438.3 702.0 391.4C702.0 314.6 702.2 306.2 703.6 305.6C706.3 304.6 786.0 305.0 795.5 306.1C805.8 307.3 810.1 308.7 817.3 313.4C828.3 320.4 837.4 330.5 840.5 339.0C848.0 359.6 847.9 373.8 840.2 393.7C838.0 399.4 824.2 415.5 820.5 416.6C819.4 417.0 816.5 418.4 814.0 419.9C803.5 426.0 801.2 426.3 767.3 426.7C743.8 427.0 735.9 427.4 735.1 428.4C734.4 429.2 733.9 438.7 733.8 453.6L733.5 477.5L718.4 477.8C710.2 477.9 703.1 477.7 702.7 477.4ZM868.7 477.3C867.4 476.0 867.9 307.5 869.2 306.2C870.6 304.8 896.7 304.5 898.7 305.8C899.7 306.4 900.0 322.1 900.2 376.6L900.5 446.5L944.2 447.0C973.5 447.3 988.3 447.9 989.0 448.6C989.7 449.3 990.0 454.6 989.8 463.6L989.5 477.5L929.4 477.8C896.4 477.9 869.0 477.7 868.7 477.3ZM1013.5 477.1C1012.2 475.0 1012.9 306.7 1014.2 305.8C1016.3 304.5 1043.4 304.8 1044.8 306.2C1046.5 307.9 1046.5 475.1 1044.8 476.8C1043.3 478.3 1014.4 478.5 1013.5 477.1ZM1078.2 476.8C1077.3 475.9 1077.0 455.7 1077.0 391.9C1077.0 317.1 1077.2 308.0 1078.6 306.6C1080.5 304.7 1100.8 304.3 1104.2 306.1C1106.5 307.4 1109.6 310.8 1115.0 318.2C1121.6 327.1 1138.0 347.9 1139.0 348.5C1139.6 348.9 1141.2 350.9 1142.6 353.1C1143.9 355.3 1147.3 359.5 1150.0 362.5C1152.8 365.5 1155.0 368.5 1155.0 369.0C1155.0 369.5 1157.1 372.4 1159.8 375.3C1165.4 381.7 1181.8 402.4 1184.2 406.2C1185.2 407.8 1186.7 409.0 1187.5 409.0C1188.8 409.0 1189.0 402.9 1189.0 358.2C1189.0 320.0 1189.3 307.1 1190.2 306.2C1192.0 304.4 1219.4 304.5 1220.9 306.4C1221.7 307.4 1221.9 330.7 1221.8 392.6L1221.5 477.5L1211.4 477.8L1201.3 478.1L1193.4 468.3C1189.0 462.9 1183.8 456.0 1181.7 453.0C1179.5 450.0 1176.4 445.9 1174.6 444.0C1172.8 442.1 1170.5 439.1 1169.5 437.5C1168.5 435.9 1165.7 432.2 1163.3 429.5C1160.9 426.8 1156.9 421.8 1154.4 418.5C1140.3 399.7 1132.9 390.2 1130.6 388.1C1129.2 386.7 1128.0 385.1 1128.0 384.5C1128.0 383.9 1125.8 380.9 1123.2 377.9C1120.5 375.0 1117.1 370.6 1115.6 368.2C1114.1 365.8 1112.4 364.0 1111.9 364.2C1111.3 364.4 1110.9 383.9 1111.0 419.6C1111.0 449.9 1110.8 475.5 1110.4 476.4C1109.9 477.8 1107.8 478.0 1094.6 478.0C1084.1 478.0 1079.0 477.6 1078.2 476.8ZM457.5 414.0C458.3 412.7 453.6 399.4 449.5 391.1C445.1 382.4 441.7 374.7 439.5 368.5C437.0 361.9 429.3 346.3 428.1 345.6C427.0 344.9 415.1 368.7 412.1 377.8C411.1 380.9 407.7 388.6 404.6 394.7C401.5 400.9 399.0 406.7 399.0 407.5C399.0 408.4 398.5 410.0 398.0 411.1C397.4 412.2 397.2 413.5 397.5 414.0C398.3 415.3 456.7 415.3 457.5 414.0ZM629.0 394.5C642.0 387.8 647.0 380.1 647.0 366.6C647.0 356.1 644.4 350.2 636.9 343.7C628.4 336.2 626.6 335.9 594.9 336.2L567.5 336.5L567.2 365.0C567.1 380.7 567.2 394.0 567.5 394.7C568.2 396.8 625.1 396.5 629.0 394.5ZM800.5 391.5C810.2 385.0 812.4 380.9 812.8 368.7C813.3 355.7 812.2 352.3 805.7 345.8C795.9 336.2 794.6 335.9 762.4 336.2L734.5 336.5L734.2 365.0C734.1 380.7 734.2 394.1 734.5 394.8C734.9 395.8 741.0 396.0 764.7 395.8L794.5 395.5L800.5 391.5ZM277.9 389.0C289.4 385.7 297.9 370.3 295.0 357.7C292.9 348.7 287.3 341.6 279.0 337.7C274.8 335.6 272.8 335.5 247.2 335.2C227.2 335.0 219.5 335.2 218.4 336.1C217.3 337.0 217.0 341.9 217.0 363.0C217.0 377.1 217.3 389.0 217.7 389.3C218.7 390.4 274.1 390.1 277.9 389.0ZM1224.7 104.3C1224.3 104.0 1224.0 82.4 1224.0 56.3L1224.0 9.0L1313.8 9.2L1403.5 9.5L1403.8 29.0C1403.9 39.7 1403.8 49.5 1403.5 50.8L1403.0 53.0L1336.4 53.0L1269.8 53.0L1266.3 56.8C1264.4 58.8 1258.6 65.8 1253.4 72.2C1248.2 78.7 1243.5 84.2 1243.0 84.5C1242.5 84.8 1239.6 88.3 1236.6 92.3C1230.3 100.6 1225.7 105.3 1224.7 104.3Z"/></svg>